<svg width="128" height="48" viewBox="0 0 128 48" fill="none" xmlns="http://www.w3.org/2000/svg">
<style>
path {
  color: #020617;
}
@media (prefers-color-scheme: dark) {
  path { color: #f8fafc; }
}
</style>
<g clip-path="url(#clip0_21_20)">
<g clip-path="url(#clip1_21_20)">
<path d="M36.75 0H11.25C5.0368 0 0 5.0368 0 11.25V36.75C0 42.9632 5.0368 48 11.25 48H36.75C42.9632 48 48 42.9632 48 36.75V11.25C48 5.0368 42.9632 0 36.75 0Z" fill="#5A45FE"/>
<path fill-rule="evenodd" clip-rule="evenodd" d="M20.0638 6.5C18.972 6.5 17.9249 6.93899 17.1529 7.72039C16.3809 8.50179 15.9472 9.5616 15.9472 10.6667V22.27C15.507 21.8925 15.0265 21.5661 14.5146 21.2967C12.835 20.4333 11.2049 20.5667 9.48744 21.2767C8.10427 21.8517 7.66462 23.4567 8.25741 24.6567L12.9371 34.13C14.0311 36.3443 15.7125 38.2066 17.7931 39.5083C19.8736 40.8099 22.2712 41.4996 24.7171 41.5H25.827C29.3207 41.5 32.6713 40.0952 35.1417 37.5948C37.6121 35.0943 39 31.7029 39 28.1667V15.6667C39 14.5616 38.5663 13.5018 37.7943 12.7204C37.0223 11.939 35.9752 11.5 34.8834 11.5C33.7916 11.5 32.7446 11.939 31.9726 12.7204C31.2006 13.5018 30.7668 14.5616 30.7668 15.6667V18.25C30.1967 18.1323 29.6084 18.1383 29.0408 18.2676C28.4731 18.3969 27.939 18.6465 27.4736 19C27.0082 18.6465 26.4741 18.3969 25.9064 18.2676C25.3387 18.1383 24.7505 18.1323 24.1803 18.25V10.6667C24.1803 10.1195 24.0738 9.57768 23.867 9.07215C23.6601 8.56663 23.3569 8.1073 22.9746 7.72039C22.5924 7.33348 22.1385 7.02656 21.6391 6.81717C21.1397 6.60777 20.6043 6.5 20.0638 6.5ZM30.7668 22.3333C30.7668 22.1123 30.6801 21.9004 30.5257 21.7441C30.3713 21.5878 30.1619 21.5 29.9435 21.5C29.7252 21.5 29.5158 21.5878 29.3614 21.7441C29.207 21.9004 29.1202 22.1123 29.1202 22.3333V23.1667C29.1202 23.6087 28.9467 24.0326 28.6379 24.3452C28.3291 24.6577 27.9103 24.8333 27.4736 24.8333C27.0369 24.8333 26.618 24.6577 26.3092 24.3452C26.0004 24.0326 25.827 23.6087 25.827 23.1667V22.3333C25.827 22.1123 25.7402 21.9004 25.5858 21.7441C25.4314 21.5878 25.222 21.5 25.0036 21.5C24.7853 21.5 24.5759 21.5878 24.4215 21.7441C24.2671 21.9004 24.1803 22.1123 24.1803 22.3333V24.8333C24.1803 25.2754 24.0068 25.6993 23.698 26.0118C23.3892 26.3244 22.9704 26.5 22.5337 26.5C22.097 26.5 21.6782 26.3244 21.3694 26.0118C21.0606 25.6993 20.8871 25.2754 20.8871 24.8333V10.6667C20.8871 10.4457 20.8003 10.2337 20.6459 10.0774C20.4915 9.92113 20.2821 9.83333 20.0638 9.83333C19.8454 9.83333 19.636 9.92113 19.4816 10.0774C19.3272 10.2337 19.2404 10.4457 19.2404 10.6667V26.5C19.2402 26.8451 19.1341 27.1815 18.9369 27.463C18.7396 27.7444 18.461 27.9569 18.1393 28.0712C17.8177 28.1856 17.4689 28.196 17.1411 28.1012C16.8134 28.0063 16.5228 27.8108 16.3094 27.5417C14.7863 25.615 13.8115 24.675 13.0244 24.2683C12.6045 24.0371 12.116 23.9679 11.6495 24.0733L15.8813 32.64C16.7019 34.3007 17.9632 35.6973 19.5238 36.6734C21.0844 37.6496 22.8826 38.1666 24.7171 38.1667H25.827C28.4472 38.1667 30.9602 37.1131 32.813 35.2377C34.6658 33.3624 35.7067 30.8188 35.7067 28.1667V15.6667C35.7067 15.4457 35.62 15.2337 35.4656 15.0774C35.3112 14.9211 35.1018 14.8333 34.8834 14.8333C34.6651 14.8333 34.4557 14.9211 34.3013 15.0774C34.1469 15.2337 34.0601 15.4457 34.0601 15.6667V24.8333C34.0601 25.2754 33.8866 25.6993 33.5778 26.0118C33.269 26.3244 32.8502 26.5 32.4135 26.5C31.9768 26.5 31.5579 26.3244 31.2491 26.0118C30.9403 25.6993 30.7668 25.2754 30.7668 24.8333V22.3333Z" fill="#F8FAFC"/>
</g>
</g>
<path d="M70.7742 35.5859C70.7742 36.1328 70.7547 36.6732 70.7156 37.207C70.6766 37.7279 70.5594 38.1966 70.3641 38.6133C70.1688 39.0299 69.8758 39.3685 69.4852 39.6289C69.0945 39.8763 68.5477 40 67.8445 40C67.1284 40 66.5685 39.8828 66.1648 39.6484C65.7612 39.401 65.4617 39.1081 65.2664 38.7695C65.0711 38.418 64.9474 38.0534 64.8953 37.6758C64.8563 37.2982 64.8367 36.9792 64.8367 36.7188C64.7195 37.0964 64.5503 37.4805 64.3289 37.8711C64.1206 38.2617 63.8471 38.6133 63.5086 38.9258C63.1701 39.2383 62.7599 39.4987 62.2781 39.707C61.8094 39.9023 61.256 40 60.618 40C59.9018 40 59.1857 39.8828 58.4695 39.6484C57.7534 39.4141 57.1089 39.0234 56.5359 38.4766C55.963 37.9297 55.4943 37.2201 55.1297 36.3477C54.7781 35.4622 54.6023 34.375 54.6023 33.0859V27.4219C54.6023 26.1198 54.7781 25.0326 55.1297 24.1602C55.4943 23.2747 55.963 22.5651 56.5359 22.0312C57.1089 21.4844 57.7534 21.0938 58.4695 20.8594C59.1857 20.625 59.9018 20.5078 60.618 20.5078C61.256 20.5078 61.8094 20.6055 62.2781 20.8008C62.7599 20.9961 63.1701 21.25 63.5086 21.5625C63.8471 21.875 64.1206 22.2266 64.3289 22.6172C64.5503 23.0078 64.7195 23.3984 64.8367 23.7891V17.1094C64.8367 16.5495 64.8628 16.0026 64.9148 15.4688C64.9799 14.9219 65.1102 14.4466 65.3055 14.043C65.5138 13.6263 65.8133 13.2943 66.2039 13.0469C66.6076 12.7865 67.1544 12.6562 67.8445 12.6562C68.4956 12.6562 69.0164 12.7865 69.407 13.0469C69.7977 13.2943 70.0906 13.6263 70.2859 14.043C70.4943 14.4466 70.6245 14.9219 70.6766 15.4688C70.7417 16.0026 70.7742 16.5495 70.7742 17.1094V35.5859ZM60.618 32.5781C60.618 32.9297 60.631 33.2747 60.657 33.6133C60.6831 33.9518 60.7547 34.2578 60.8719 34.5312C60.9891 34.8047 61.1583 35.026 61.3797 35.1953C61.6141 35.3516 61.9331 35.4297 62.3367 35.4297C62.8445 35.4297 63.2547 35.319 63.5672 35.0977C63.8927 34.8633 64.1466 34.5117 64.3289 34.043C64.5112 33.5612 64.6349 32.9622 64.7 32.2461C64.7781 31.5169 64.8237 30.651 64.8367 29.6484C64.8367 29.2448 64.7977 28.7826 64.7195 28.2617C64.6544 27.7279 64.5307 27.2266 64.3484 26.7578C64.1661 26.2891 63.9122 25.8919 63.5867 25.5664C63.2612 25.2409 62.8445 25.0781 62.3367 25.0781C61.9331 25.0781 61.6141 25.1628 61.3797 25.332C61.1583 25.4883 60.9891 25.6966 60.8719 25.957C60.7547 26.2174 60.6831 26.5169 60.657 26.8555C60.631 27.181 60.618 27.513 60.618 27.8516V32.5781ZM73.1305 24.8438C73.1305 24.2969 73.1565 23.763 73.2086 23.2422C73.2737 22.7214 73.4104 22.2591 73.6188 21.8555C73.8271 21.4388 74.1266 21.1068 74.5172 20.8594C74.9078 20.599 75.4352 20.4688 76.0992 20.4688C76.7633 20.4688 77.2906 20.599 77.6813 20.8594C78.0719 21.1068 78.3714 21.4388 78.5797 21.8555C78.788 22.2591 78.9182 22.7214 78.9703 23.2422C79.0354 23.763 79.068 24.2969 79.068 24.8438V35.625C79.068 36.1719 79.0354 36.7122 78.9703 37.2461C78.9182 37.7669 78.788 38.2357 78.5797 38.6523C78.3714 39.056 78.0719 39.3815 77.6813 39.6289C77.2906 39.8763 76.7633 40 76.0992 40C75.4352 40 74.9078 39.8763 74.5172 39.6289C74.1266 39.3815 73.8271 39.056 73.6188 38.6523C73.4104 38.2357 73.2737 37.7669 73.2086 37.2461C73.1565 36.7122 73.1305 36.1719 73.1305 35.625V24.8438ZM79.107 15.625C79.107 16.6276 78.8466 17.3763 78.3258 17.8711C77.8049 18.3529 77.0758 18.5938 76.1383 18.5938C75.2008 18.5938 74.4716 18.3529 73.9508 17.8711C73.4299 17.3763 73.1695 16.6276 73.1695 15.625C73.1695 14.5833 73.4299 13.8281 73.9508 13.3594C74.4716 12.8906 75.2008 12.6562 76.1383 12.6562C77.1409 12.6562 77.8831 12.8906 78.3648 13.3594C78.8596 13.8281 79.107 14.5833 79.107 15.625ZM97.8305 28.8672C97.8305 29.0755 97.8174 29.3229 97.7914 29.6094C97.7654 29.8828 97.6612 30.1497 97.4789 30.4102C97.3096 30.6576 97.0362 30.8724 96.6586 31.0547C96.281 31.237 95.7471 31.3281 95.057 31.3281H87.2836V33.2031C87.2836 33.5156 87.3227 33.8411 87.4008 34.1797C87.4789 34.5182 87.6091 34.8307 87.7914 35.1172C87.9867 35.4036 88.2406 35.638 88.5531 35.8203C88.8656 36.0026 89.2497 36.0938 89.7055 36.0938C90.2263 36.0938 90.6234 36.0352 90.8969 35.918C91.1833 35.7878 91.4047 35.6315 91.5609 35.4492C91.7302 35.2669 91.8799 35.0716 92.0102 34.8633C92.1404 34.6549 92.3096 34.4596 92.518 34.2773C92.7393 34.0951 93.0388 33.9453 93.4164 33.8281C93.807 33.6979 94.3409 33.6328 95.018 33.6328C95.3435 33.6328 95.656 33.6589 95.9555 33.7109C96.268 33.763 96.5414 33.8607 96.7758 34.0039C97.0102 34.1471 97.199 34.349 97.3422 34.6094C97.4854 34.8568 97.557 35.1823 97.557 35.5859C97.557 36.4323 97.2901 37.1419 96.7563 37.7148C96.2224 38.2747 95.5518 38.724 94.7445 39.0625C93.9372 39.401 93.0583 39.6419 92.1078 39.7852C91.1703 39.9284 90.2914 40 89.4711 40C88.3904 39.987 87.3617 39.8503 86.3852 39.5898C85.4086 39.3294 84.5427 38.9128 83.7875 38.3398C83.0453 37.7669 82.4529 37.0182 82.0102 36.0938C81.5674 35.1693 81.3461 34.0365 81.3461 32.6953V28.125C81.3461 26.888 81.4893 25.8398 81.7758 24.9805C82.0753 24.1211 82.4594 23.4049 82.9281 22.832C83.3969 22.2591 83.9242 21.8164 84.5102 21.5039C85.0961 21.1784 85.6885 20.9375 86.2875 20.7812C86.8865 20.625 87.4529 20.5273 87.9867 20.4883C88.5336 20.4492 89.0023 20.4297 89.393 20.4297C90.7081 20.4297 91.8279 20.5469 92.7523 20.7812C93.6898 21.0156 94.4711 21.3216 95.0961 21.6992C95.7211 22.0768 96.2159 22.513 96.5805 23.0078C96.9451 23.5026 97.2185 24.0169 97.4008 24.5508C97.5831 25.0716 97.7003 25.6055 97.7523 26.1523C97.8044 26.6862 97.8305 27.1875 97.8305 27.6562V28.8672ZM87.2836 28.3984H92.1664C92.1664 27.7865 92.1469 27.2461 92.1078 26.7773C92.0818 26.2956 91.9841 25.8919 91.8148 25.5664C91.6586 25.2409 91.4047 24.9935 91.0531 24.8242C90.7146 24.6549 90.2263 24.5703 89.5883 24.5703C89.0544 24.5703 88.6313 24.6549 88.3188 24.8242C88.0193 24.9935 87.7914 25.2083 87.6352 25.4688C87.4789 25.7161 87.3813 25.9831 87.3422 26.2695C87.3031 26.556 87.2836 26.8099 87.2836 27.0312V28.3984ZM112.452 40C111.788 40 111.261 39.8763 110.87 39.6289C110.48 39.3685 110.18 39.0299 109.972 38.6133C109.764 38.1966 109.627 37.7279 109.562 37.207C109.51 36.6732 109.484 36.1328 109.484 35.5859V27.8516C109.484 27.5 109.464 27.1549 109.425 26.8164C109.399 26.4779 109.327 26.1784 109.21 25.918C109.093 25.6576 108.917 25.4492 108.683 25.293C108.461 25.1237 108.155 25.0391 107.765 25.0391C107.244 25.0391 106.821 25.2148 106.495 25.5664C106.17 25.918 105.909 26.3997 105.714 27.0117C105.532 27.6107 105.402 28.3203 105.323 29.1406C105.258 29.9609 105.226 30.8464 105.226 31.7969V35.5859C105.226 36.1328 105.193 36.6732 105.128 37.207C105.076 37.7279 104.946 38.1966 104.737 38.6133C104.542 39.0299 104.249 39.3685 103.859 39.6289C103.468 39.8763 102.934 40 102.257 40C101.58 40 101.046 39.8763 100.655 39.6289C100.265 39.3685 99.9654 39.0299 99.757 38.6133C99.5617 38.1966 99.4315 37.7279 99.3664 37.207C99.3143 36.6732 99.2883 36.1328 99.2883 35.5859V24.8828C99.2883 24.3359 99.3078 23.8021 99.3469 23.2812C99.399 22.7474 99.5227 22.2721 99.718 21.8555C99.9133 21.4388 100.206 21.1068 100.597 20.8594C101.001 20.599 101.554 20.4688 102.257 20.4688C102.973 20.4688 103.527 20.5924 103.917 20.8398C104.321 21.0742 104.62 21.3672 104.816 21.7188C105.011 22.0573 105.128 22.4154 105.167 22.793C105.206 23.1706 105.226 23.4896 105.226 23.75C105.343 23.3724 105.525 22.9883 105.773 22.5977C106.033 22.207 106.359 21.8555 106.749 21.543C107.14 21.2305 107.589 20.9766 108.097 20.7812C108.605 20.5729 109.171 20.4688 109.796 20.4688C110.655 20.4688 111.489 20.6771 112.296 21.0938C113.103 21.5104 113.793 22.1875 114.366 23.125C114.562 22.6823 114.848 22.2982 115.226 21.9727C115.603 21.6341 116.033 21.3542 116.515 21.1328C116.997 20.9115 117.511 20.7487 118.058 20.6445C118.605 20.5273 119.145 20.4688 119.679 20.4688C120.395 20.4688 121.111 20.5859 121.827 20.8203C122.543 21.0547 123.188 21.4453 123.761 21.9922C124.334 22.5391 124.796 23.2552 125.148 24.1406C125.512 25.013 125.695 26.0938 125.695 27.3828V35.5859C125.695 36.1328 125.662 36.6732 125.597 37.207C125.532 37.7279 125.395 38.1966 125.187 38.6133C124.978 39.0299 124.672 39.3685 124.269 39.6289C123.878 39.8763 123.351 40 122.687 40C122.01 40 121.469 39.8763 121.066 39.6289C120.675 39.3685 120.376 39.0299 120.167 38.6133C119.959 38.1966 119.822 37.7279 119.757 37.207C119.705 36.6732 119.679 36.1328 119.679 35.5859V27.8516C119.679 27.5 119.659 27.1549 119.62 26.8164C119.581 26.4779 119.503 26.1784 119.386 25.918C119.269 25.6576 119.093 25.4492 118.859 25.293C118.624 25.1237 118.312 25.0391 117.921 25.0391C117.504 25.0391 117.146 25.1693 116.847 25.4297C116.56 25.6901 116.32 26.0482 116.124 26.5039C115.929 26.9596 115.779 27.5065 115.675 28.1445C115.571 28.7695 115.499 29.4531 115.46 30.1953V35.5859C115.46 36.1328 115.428 36.6732 115.362 37.207C115.31 37.7279 115.18 38.1966 114.972 38.6133C114.764 39.0299 114.458 39.3685 114.054 39.6289C113.663 39.8763 113.129 40 112.452 40Z" fill="currentColor"/>
<defs>
<clipPath id="clip0_21_20">
<rect width="48" height="48" fill="white"/>
</clipPath>
<clipPath id="clip1_21_20">
<rect width="48" height="48" fill="white"/>
</clipPath>
</defs>
</svg>
